<?xml version="1.0" encoding="UTF-8"?>
<svg version="1.1" xmlns="http://www.w3.org/2000/svg" width="512" height="512">
<path d="M0 0 C1.49660156 0.83337891 1.49660156 0.83337891 3.0234375 1.68359375 C18.97043114 11.21066588 32.0136655 25.93352317 41 42 C41.53367187 42.92039063 42.06734375 43.84078125 42.6171875 44.7890625 C58.60543328 74.19749386 59.49335294 114.42014222 50.375 146.0625 C41.46379389 175.02391984 21.55356014 198.53042231 -5 213 C-15.63773704 218.4628484 -27.18031948 222.20212691 -39 224 C-37.98969727 224.18792114 -37.98969727 224.18792114 -36.95898438 224.37963867 C8.66620203 232.95185544 49.00371888 251.56843711 78 289 C78.94875 288.154375 79.8975 287.30875 80.875 286.4375 C105.1815821 265.72111166 134.21702806 256.33014158 166 258 C196.52204765 260.63527168 222.93796752 275.14877372 243 298 C262.39106123 321.47984209 270.54547617 352.26491592 267.7890625 382.29833984 C264.28555919 411.95204493 249.36222816 438.3577913 226.41015625 457.31298828 C201.66067724 476.62344525 170.77756436 483.98549051 139.875 480.3125 C124.80660899 477.77189919 111.30769677 472.58412271 98.11815804 464.90426153 C95.54121808 463.80414169 93.6161726 463.75495277 90.81650257 463.76228428 C89.7621032 463.76015228 88.70770383 463.75802028 87.62135297 463.75582367 C85.88543906 463.76763173 85.88543906 463.76763173 84.11445618 463.77967834 C82.26900555 463.78029012 82.26900555 463.78029012 80.38627309 463.78091425 C76.96931381 463.78400357 73.55259643 463.79607644 70.13568604 463.8118459 C66.45117179 463.82663873 62.76664621 463.82981683 59.08210754 463.83427429 C52.6957126 463.84346438 46.3093663 463.85964958 39.92299843 463.88023567 C30.679561 463.90975726 21.43613871 463.92539397 12.19266333 463.93704777 C-2.81680333 463.95606884 -17.82624909 463.98182187 -32.83569336 464.01391602 C-34.18350765 464.01679292 -34.18350765 464.01679292 -35.55855051 464.01972794 C-45.57885322 464.04126515 -55.5991511 464.0644315 -65.6194458 464.0894165 C-69.25044755 464.09844775 -72.88144933 464.10746437 -76.51245117 464.11645508 C-77.40838431 464.11867673 -78.30431746 464.12089839 -79.22740009 464.12318737 C-94.17423392 464.15992808 -109.12106212 464.18499173 -124.06793243 464.20092481 C-133.28567902 464.21125216 -142.50329649 464.23164798 -151.72098891 464.26504242 C-158.04059884 464.28720385 -164.36016943 464.29856326 -170.67981734 464.30147774 C-174.324493 464.30352354 -177.96898533 464.31048753 -181.61360931 464.33069992 C-185.56896495 464.35253155 -189.52411953 464.3509861 -193.47953796 464.3473053 C-195.19872146 464.36245944 -195.19872146 464.36245944 -196.95263594 464.37791973 C-206.73008041 464.33450493 -214.05903733 462.69997578 -221.2734375 455.90234375 C-226.35751052 450.30066149 -228.11084622 444.72852013 -228.16113281 437.27954102 C-228.17074036 436.1263588 -228.1803479 434.97317657 -228.19024658 433.78504944 C-228.19449646 432.53727219 -228.19874634 431.28949493 -228.203125 430.00390625 C-228.20882507 428.70541245 -228.21452515 427.40691864 -228.22039795 426.06907654 C-228.23090573 423.30931206 -228.23674592 420.54957658 -228.24023438 417.78979492 C-228.24457339 415.00189799 -228.25828267 412.21431852 -228.28125 409.42651367 C-228.62669618 366.63863879 -220.44805848 326.71908768 -194 292 C-193.02933594 290.69675781 -193.02933594 290.69675781 -192.0390625 289.3671875 C-176.80072833 269.80840609 -158.00591986 254.27763776 -136 243 C-135.32356445 242.64953613 -134.64712891 242.29907227 -133.95019531 241.93798828 C-115.14641608 232.30515948 -95.69624184 227.77677898 -75 224 C-76.0415625 223.79246094 -77.083125 223.58492187 -78.15625 223.37109375 C-88.7792456 221.1345421 -98.26672195 217.78356314 -108 213 C-109.0209375 212.50371094 -110.041875 212.00742188 -111.09375 211.49609375 C-117.72990687 208.07549042 -123.34801059 203.85353376 -129 199 C-129.81210938 198.33355469 -130.62421875 197.66710937 -131.4609375 196.98046875 C-145.43394718 185.10120658 -155.31891567 169.66979445 -161.8125 152.625 C-162.09061523 151.90739502 -162.36873047 151.18979004 -162.65527344 150.45043945 C-167.6624568 136.56175697 -168.51254581 122.64921715 -168.44604492 108.0378418 C-168.43754023 105.20091897 -168.46641053 102.3660224 -168.49804688 99.52929688 C-168.60619542 71.43245744 -160.56810364 45.40834893 -142 24 C-141.00419922 22.78763672 -141.00419922 22.78763672 -139.98828125 21.55078125 C-105.50364961 -19.05311959 -45.11535843 -25.25411458 0 0 Z " fill="#323387" transform="translate(236,23)"/>
<path d="M0 0 C23.07562013 19.60645727 38.25103472 46.32727704 41.1953125 76.7578125 C43.18765795 106.63721937 35.17480036 136.11668484 15.60644531 159.14746094 C-4.21753834 181.77012463 -30.65290648 196.0480742 -60.8046875 198.7578125 C-84.78747417 200.23251282 -105.80165409 195.04414006 -126.8046875 183.7578125 C-128.13503712 183.0852115 -129.46666911 182.41502556 -130.8046875 181.7578125 C-130.8046875 181.0978125 -130.8046875 180.4378125 -130.8046875 179.7578125 C-131.38347656 179.48582031 -131.96226562 179.21382812 -132.55859375 178.93359375 C-153.9167971 167.7530386 -169.33999824 143.33928713 -176.375 120.9609375 C-185.14283174 91.15272246 -181.93944782 60.58337479 -167.671875 33.05859375 C-152.76806064 6.71189263 -129.6457165 -11.69214079 -100.8046875 -20.4921875 C-66.13228473 -29.72789967 -27.97349985 -22.91716593 0 0 Z " fill="#33C355" transform="translate(462.8046875,305.2421875)"/>
<path d="M0 0 C3.80470451 0.7133821 5.41196019 1.67868421 8 4.5625 C9.2565134 7.9352465 9.64529316 10.1294841 8.1328125 13.48828125 C6.55294285 15.97026583 4.82115292 18.25013702 3 20.5625 C2.56929199 21.10970703 2.13858398 21.65691406 1.69482422 22.22070312 C-0.82597968 25.41273727 -3.37112491 28.5842705 -5.9296875 31.74609375 C-9.04241984 35.59990695 -12.06788043 39.51305659 -15.078125 43.44750977 C-18.61319206 48.06574695 -22.17744273 52.66070972 -25.75 57.25 C-26.34208252 58.01086914 -26.93416504 58.77173828 -27.54418945 59.55566406 C-30.54473565 63.41079364 -33.54712855 67.26447796 -36.55078125 71.1171875 C-37.1319873 71.86331299 -37.71319336 72.60943848 -38.31201172 73.37817383 C-39.47293356 74.86826639 -40.63470875 76.35769454 -41.79736328 77.84643555 C-44.77827937 81.67165005 -47.7260109 85.51750639 -50.62890625 89.40234375 C-51.21599365 90.18407959 -51.80308105 90.96581543 -52.40795898 91.77124023 C-53.5249467 93.26177482 -54.63550601 94.75715586 -55.73852539 96.25805664 C-56.23989014 96.92571045 -56.74125488 97.59336426 -57.2578125 98.28125 C-57.6923877 98.86841797 -58.12696289 99.45558594 -58.57470703 100.06054688 C-60.35185621 101.93328098 -61.52539287 102.76269162 -64 103.5625 C-69.7252588 103.41832705 -72.29876455 102.00291168 -76.2421875 97.94140625 C-77.62277344 96.53858398 -77.62277344 96.53858398 -79.03125 95.10742188 C-79.97928434 94.11339347 -80.92719971 93.11925157 -81.875 92.125 C-82.84500807 91.13344699 -83.81635123 90.14319819 -84.7890625 89.15429688 C-92.89745724 80.83403024 -92.89745724 80.83403024 -93.3125 75.6875 C-93.25797069 72.68838791 -93.07836085 71.68787736 -91.4375 69.0625 C-87.89383548 66.88178337 -86.10900306 66.80918277 -82 67.5625 C-79.02811023 69.58743491 -76.56367667 72.0521323 -74 74.5625 C-72.50776886 75.88382603 -71.00804485 77.19675137 -69.5 78.5 C-68.33333333 79.52083333 -67.16666667 80.54166667 -66 81.5625 C-65.72704102 80.97871582 -65.45408203 80.39493164 -65.17285156 79.79345703 C-64.0222272 77.6047798 -62.7616631 75.80737911 -61.234375 73.8671875 C-60.68136719 73.16078125 -60.12835938 72.454375 -59.55859375 71.7265625 C-58.66333984 70.59347656 -58.66333984 70.59347656 -57.75 69.4375 C-56.4738667 67.80996768 -55.19782762 66.18236147 -53.921875 64.5546875 C-53.26896484 63.72420898 -52.61605469 62.89373047 -51.94335938 62.03808594 C-48.94875932 58.22335672 -45.97480708 54.39266946 -43 50.5625 C-41.83344619 49.06241223 -40.66677917 47.56241249 -39.5 46.0625 C-38.63375 44.94875 -38.63375 44.94875 -37.75 43.8125 C-36 41.5625 -34.25 39.3125 -32.5 37.0625 C-31.9217749 36.31895264 -31.3435498 35.57540527 -30.74780273 34.80932617 C-29.58891154 33.31955446 -28.42957392 31.8301299 -27.26977539 30.34106445 C-24.2302643 26.43739961 -21.20029404 22.52679582 -18.18359375 18.60546875 C-17.55646484 17.79271484 -16.92933594 16.97996094 -16.28320312 16.14257812 C-15.08760067 14.59272309 -13.89471395 13.04076772 -12.70507812 11.48632812 C-4.47861258 0.83973986 -4.47861258 0.83973986 0 0 Z " fill="#FBFEFC" transform="translate(435,340.4375)"/>
</svg>
