<?xml version="1.0" encoding="UTF-8"?>
<svg version="1.1" xmlns="http://www.w3.org/2000/svg" width="512" height="512">
<path d="M0 0 C1.23064178 -0.00686325 2.46128357 -0.0137265 3.72921753 -0.02079773 C7.07662155 -0.03587284 10.42346438 -0.03758471 13.7708602 -0.03185534 C16.57867059 -0.02874468 19.38643164 -0.03487675 22.19423497 -0.04089409 C28.82549604 -0.0548969 35.45662816 -0.05341402 42.08789062 -0.04199219 C48.89877562 -0.03051923 55.70926645 -0.0445822 62.52009952 -0.07138866 C68.39562727 -0.0936367 74.27103211 -0.10016256 80.14659894 -0.09431225 C83.64349195 -0.0909626 87.14013254 -0.09322316 90.63698959 -0.11056328 C94.54200086 -0.12908558 98.44653769 -0.11475211 102.3515625 -0.09765625 C103.48960327 -0.10732422 104.62764404 -0.11699219 105.8001709 -0.12695312 C119.98531727 0.0023253 130.75391235 5.15914421 141.05517578 14.71655273 C150.99756516 25.22171887 153.76474407 37.01431891 153.70922852 51.09887695 C153.71609177 52.32951874 153.72295502 53.56016052 153.73002625 54.82809448 C153.74510135 58.1754985 153.74681322 61.52234133 153.74108386 64.86973715 C153.73797319 67.67754754 153.74410527 70.48530859 153.75012261 73.29311192 C153.76412541 79.92437299 153.76264254 86.55550511 153.7512207 93.18676758 C153.73974775 99.99765257 153.75381072 106.8081434 153.78061718 113.61897647 C153.80286521 119.49450422 153.80939107 125.36990907 153.80354077 131.24547589 C153.80019111 134.7423689 153.80245168 138.23900949 153.81979179 141.73586655 C153.8383141 145.64087781 153.82398062 149.54541464 153.80688477 153.45043945 C153.82138672 155.15750061 153.82138672 155.15750061 153.83618164 156.89904785 C153.70690322 171.08419423 148.5500843 181.8527893 138.99267578 192.15405273 C128.48750964 202.09644211 116.69490961 204.86362103 102.61035156 204.80810547 C101.37970978 204.81496872 100.14906799 204.82183197 98.88113403 204.8289032 C95.53373001 204.84397831 92.18688718 204.84569017 88.83949137 204.83996081 C86.03168098 204.83685014 83.22391992 204.84298222 80.4161166 204.84899956 C73.78485553 204.86300237 67.1537234 204.86151949 60.52246094 204.85009766 C53.71157594 204.8386247 46.90108512 204.85268767 40.09025204 204.87949413 C34.2147243 204.90174217 28.33931945 204.90826803 22.46375263 204.90241772 C18.96685961 204.89906807 15.47021902 204.90132863 11.97336197 204.91866875 C8.0683507 204.93719105 4.16381387 204.92285757 0.25878906 204.90576172 C-1.44827209 204.92026367 -1.44827209 204.92026367 -3.18981934 204.93505859 C-17.37496571 204.80578017 -28.14356079 199.64896126 -38.44482422 190.09155273 C-48.3872136 179.5863866 -51.15439251 167.79378656 -51.09887695 153.70922852 C-51.1057402 152.47858673 -51.11260345 151.24794495 -51.11967468 149.98001099 C-51.13474979 146.63260697 -51.13646166 143.28576413 -51.1307323 139.93836832 C-51.12762163 137.13055793 -51.13375371 134.32279688 -51.13977104 131.51499355 C-51.15377385 124.88373248 -51.15229097 118.25260035 -51.14086914 111.62133789 C-51.12939619 104.8104529 -51.14345916 97.99996207 -51.17026561 91.18912899 C-51.19251365 85.31360125 -51.19903951 79.4381964 -51.1931892 73.56262958 C-51.18983955 70.06573657 -51.19210012 66.56909598 -51.20944023 63.07223892 C-51.22796253 59.16722766 -51.21362906 55.26269083 -51.1965332 51.35766602 C-51.21103516 49.65060486 -51.21103516 49.65060486 -51.22583008 47.90905762 C-51.09655165 33.72391124 -45.93973274 22.95531616 -36.38232422 12.65405273 C-25.87715808 2.71166335 -14.08455804 -0.05551556 0 0 Z " fill="#B3A9EB" transform="translate(70.69482421875,287.595947265625)"/>
<path d="M0 0 C1.23064178 -0.00686325 2.46128357 -0.0137265 3.72921753 -0.02079773 C7.07662155 -0.03587284 10.42346438 -0.03758471 13.7708602 -0.03185534 C16.57867059 -0.02874468 19.38643164 -0.03487675 22.19423497 -0.04089409 C28.82549604 -0.0548969 35.45662816 -0.05341402 42.08789062 -0.04199219 C48.89877562 -0.03051923 55.70926645 -0.0445822 62.52009952 -0.07138866 C68.39562727 -0.0936367 74.27103211 -0.10016256 80.14659894 -0.09431225 C83.64349195 -0.0909626 87.14013254 -0.09322316 90.63698959 -0.11056328 C94.54200086 -0.12908558 98.44653769 -0.11475211 102.3515625 -0.09765625 C103.48960327 -0.10732422 104.62764404 -0.11699219 105.8001709 -0.12695312 C119.98531727 0.0023253 130.75391235 5.15914421 141.05517578 14.71655273 C150.99756516 25.22171887 153.76474407 37.01431891 153.70922852 51.09887695 C153.71609177 52.32951874 153.72295502 53.56016052 153.73002625 54.82809448 C153.74510135 58.1754985 153.74681322 61.52234133 153.74108386 64.86973715 C153.73797319 67.67754754 153.74410527 70.48530859 153.75012261 73.29311192 C153.76412541 79.92437299 153.76264254 86.55550511 153.7512207 93.18676758 C153.73974775 99.99765257 153.75381072 106.8081434 153.78061718 113.61897647 C153.80286521 119.49450422 153.80939107 125.36990907 153.80354077 131.24547589 C153.80019111 134.7423689 153.80245168 138.23900949 153.81979179 141.73586655 C153.8383141 145.64087781 153.82398062 149.54541464 153.80688477 153.45043945 C153.82138672 155.15750061 153.82138672 155.15750061 153.83618164 156.89904785 C153.70690322 171.08419423 148.5500843 181.8527893 138.99267578 192.15405273 C128.48750964 202.09644211 116.69490961 204.86362103 102.61035156 204.80810547 C101.37970978 204.81496872 100.14906799 204.82183197 98.88113403 204.8289032 C95.53373001 204.84397831 92.18688718 204.84569017 88.83949137 204.83996081 C86.03168098 204.83685014 83.22391992 204.84298222 80.4161166 204.84899956 C73.78485553 204.86300237 67.1537234 204.86151949 60.52246094 204.85009766 C53.71157594 204.8386247 46.90108512 204.85268767 40.09025204 204.87949413 C34.2147243 204.90174217 28.33931945 204.90826803 22.46375263 204.90241772 C18.96685961 204.89906807 15.47021902 204.90132863 11.97336197 204.91866875 C8.0683507 204.93719105 4.16381387 204.92285757 0.25878906 204.90576172 C-1.44827209 204.92026367 -1.44827209 204.92026367 -3.18981934 204.93505859 C-17.37496571 204.80578017 -28.14356079 199.64896126 -38.44482422 190.09155273 C-48.3872136 179.5863866 -51.15439251 167.79378656 -51.09887695 153.70922852 C-51.1057402 152.47858673 -51.11260345 151.24794495 -51.11967468 149.98001099 C-51.13474979 146.63260697 -51.13646166 143.28576413 -51.1307323 139.93836832 C-51.12762163 137.13055793 -51.13375371 134.32279688 -51.13977104 131.51499355 C-51.15377385 124.88373248 -51.15229097 118.25260035 -51.14086914 111.62133789 C-51.12939619 104.8104529 -51.14345916 97.99996207 -51.17026561 91.18912899 C-51.19251365 85.31360125 -51.19903951 79.4381964 -51.1931892 73.56262958 C-51.18983955 70.06573657 -51.19210012 66.56909598 -51.20944023 63.07223892 C-51.22796253 59.16722766 -51.21362906 55.26269083 -51.1965332 51.35766602 C-51.21103516 49.65060486 -51.21103516 49.65060486 -51.22583008 47.90905762 C-51.09655165 33.72391124 -45.93973274 22.95531616 -36.38232422 12.65405273 C-25.87715808 2.71166335 -14.08455804 -0.05551556 0 0 Z " fill="#B3A9EB" transform="translate(338.69482421875,19.595947265625)"/>
<path d="M0 0 C1.23064178 -0.00686325 2.46128357 -0.0137265 3.72921753 -0.02079773 C7.07662155 -0.03587284 10.42346438 -0.03758471 13.7708602 -0.03185534 C16.57867059 -0.02874468 19.38643164 -0.03487675 22.19423497 -0.04089409 C28.82549604 -0.0548969 35.45662816 -0.05341402 42.08789062 -0.04199219 C48.89877562 -0.03051923 55.70926645 -0.0445822 62.52009952 -0.07138866 C68.39562727 -0.0936367 74.27103211 -0.10016256 80.14659894 -0.09431225 C83.64349195 -0.0909626 87.14013254 -0.09322316 90.63698959 -0.11056328 C94.54200086 -0.12908558 98.44653769 -0.11475211 102.3515625 -0.09765625 C103.48960327 -0.10732422 104.62764404 -0.11699219 105.8001709 -0.12695312 C119.98531727 0.0023253 130.75391235 5.15914421 141.05517578 14.71655273 C150.99756516 25.22171887 153.76474407 37.01431891 153.70922852 51.09887695 C153.71609177 52.32951874 153.72295502 53.56016052 153.73002625 54.82809448 C153.74510135 58.1754985 153.74681322 61.52234133 153.74108386 64.86973715 C153.73797319 67.67754754 153.74410527 70.48530859 153.75012261 73.29311192 C153.76412541 79.92437299 153.76264254 86.55550511 153.7512207 93.18676758 C153.73974775 99.99765257 153.75381072 106.8081434 153.78061718 113.61897647 C153.80286521 119.49450422 153.80939107 125.36990907 153.80354077 131.24547589 C153.80019111 134.7423689 153.80245168 138.23900949 153.81979179 141.73586655 C153.8383141 145.64087781 153.82398062 149.54541464 153.80688477 153.45043945 C153.82138672 155.15750061 153.82138672 155.15750061 153.83618164 156.89904785 C153.70690322 171.08419423 148.5500843 181.8527893 138.99267578 192.15405273 C128.48750964 202.09644211 116.69490961 204.86362103 102.61035156 204.80810547 C101.37970978 204.81496872 100.14906799 204.82183197 98.88113403 204.8289032 C95.53373001 204.84397831 92.18688718 204.84569017 88.83949137 204.83996081 C86.03168098 204.83685014 83.22391992 204.84298222 80.4161166 204.84899956 C73.78485553 204.86300237 67.1537234 204.86151949 60.52246094 204.85009766 C53.71157594 204.8386247 46.90108512 204.85268767 40.09025204 204.87949413 C34.2147243 204.90174217 28.33931945 204.90826803 22.46375263 204.90241772 C18.96685961 204.89906807 15.47021902 204.90132863 11.97336197 204.91866875 C8.0683507 204.93719105 4.16381387 204.92285757 0.25878906 204.90576172 C-1.44827209 204.92026367 -1.44827209 204.92026367 -3.18981934 204.93505859 C-17.37496571 204.80578017 -28.14356079 199.64896126 -38.44482422 190.09155273 C-48.3872136 179.5863866 -51.15439251 167.79378656 -51.09887695 153.70922852 C-51.1057402 152.47858673 -51.11260345 151.24794495 -51.11967468 149.98001099 C-51.13474979 146.63260697 -51.13646166 143.28576413 -51.1307323 139.93836832 C-51.12762163 137.13055793 -51.13375371 134.32279688 -51.13977104 131.51499355 C-51.15377385 124.88373248 -51.15229097 118.25260035 -51.14086914 111.62133789 C-51.12939619 104.8104529 -51.14345916 97.99996207 -51.17026561 91.18912899 C-51.19251365 85.31360125 -51.19903951 79.4381964 -51.1931892 73.56262958 C-51.18983955 70.06573657 -51.19210012 66.56909598 -51.20944023 63.07223892 C-51.22796253 59.16722766 -51.21362906 55.26269083 -51.1965332 51.35766602 C-51.21103516 49.65060486 -51.21103516 49.65060486 -51.22583008 47.90905762 C-51.09655165 33.72391124 -45.93973274 22.95531616 -36.38232422 12.65405273 C-25.87715808 2.71166335 -14.08455804 -0.05551556 0 0 Z " fill="#B3A9EB" transform="translate(70.69482421875,19.595947265625)"/>
<path d="M0 0 C9.32386612 6.06946259 16.24789051 13.658398 19.23828125 24.45703125 C19.49914892 27.49958576 19.47191304 30.52239588 19.43359375 33.57421875 C19.43076385 34.43137482 19.42793396 35.28853088 19.42501831 36.17166138 C19.41388124 38.89193057 19.38878885 41.61186266 19.36328125 44.33203125 C19.35324307 46.18358897 19.34411869 48.03515189 19.3359375 49.88671875 C19.31396313 54.41028485 19.27947825 58.93360102 19.23828125 63.45703125 C20.36733887 63.43608398 21.49639648 63.41513672 22.65966797 63.39355469 C26.89016801 63.32058657 31.12061362 63.27502713 35.3515625 63.23730469 C37.17490017 63.21731761 38.99817481 63.19011839 40.82128906 63.15527344 C55.33845399 62.88496478 65.10315154 63.63072592 76.0390625 74.0859375 C84.39062997 83.09020296 85.8272081 92.16211079 85.5390625 104.03515625 C84.99972401 114.591098 79.85048309 121.39661999 72.23828125 128.45703125 C65.00023408 134.0661894 58.15303891 135.76575063 49.12109375 135.65234375 C48.26393768 135.64951385 47.40678162 135.64668396 46.52365112 135.64376831 C43.80338193 135.63263124 41.08344984 135.60753885 38.36328125 135.58203125 C36.51172353 135.57199307 34.66016061 135.56286869 32.80859375 135.5546875 C28.28502765 135.53271313 23.76171148 135.49822825 19.23828125 135.45703125 C19.25922852 136.58608887 19.28017578 137.71514648 19.30175781 138.87841797 C19.37472593 143.10891801 19.42028537 147.33936362 19.45800781 151.5703125 C19.47799489 153.39365017 19.50519411 155.21692481 19.54003906 157.04003906 C19.81034772 171.55720399 19.06458658 181.32190154 8.609375 192.2578125 C-0.39489046 200.60937997 -9.46679829 202.0459581 -21.33984375 201.7578125 C-31.8957855 201.21847401 -38.70130749 196.06923309 -45.76171875 188.45703125 C-51.3708769 181.21898408 -53.07043813 174.37178891 -52.95703125 165.33984375 C-52.95420135 164.48268768 -52.95137146 163.62553162 -52.94845581 162.74240112 C-52.93731874 160.02213193 -52.91222635 157.30219984 -52.88671875 154.58203125 C-52.87668057 152.73047353 -52.86755619 150.87891061 -52.859375 149.02734375 C-52.83740063 144.50377765 -52.80291575 139.98046148 -52.76171875 135.45703125 C-53.89077637 135.47797852 -55.01983398 135.49892578 -56.18310547 135.52050781 C-60.41360551 135.59347593 -64.64405112 135.63903537 -68.875 135.67675781 C-70.69833767 135.69674489 -72.52161231 135.72394411 -74.34472656 135.75878906 C-88.86189149 136.02909772 -98.62658904 135.28333658 -109.5625 124.828125 C-117.91406747 115.82385954 -119.3506456 106.75195171 -119.0625 94.87890625 C-118.52316151 84.3229645 -113.37392059 77.51744251 -105.76171875 70.45703125 C-98.52367158 64.8478731 -91.67647641 63.14831187 -82.64453125 63.26171875 C-81.35879715 63.26596359 -81.35879715 63.26596359 -80.04708862 63.27029419 C-77.32681943 63.28143126 -74.60688734 63.30652365 -71.88671875 63.33203125 C-70.03516103 63.34206943 -68.18359811 63.35119381 -66.33203125 63.359375 C-61.80846515 63.38134937 -57.28514898 63.41583425 -52.76171875 63.45703125 C-52.79313965 61.76344482 -52.79313965 61.76344482 -52.82519531 60.03564453 C-52.89816343 55.80514449 -52.94372287 51.57469888 -52.98144531 47.34375 C-53.00143239 45.52041233 -53.02863161 43.69713769 -53.06347656 41.87402344 C-53.33378522 27.35685851 -52.58802408 17.59216096 -42.1328125 6.65625 C-31.30988012 -3.38215351 -13.59314718 -6.64397349 0 0 Z " fill="#8469DC" transform="translate(406.76171875,290.54296875)"/>
</svg>
