<?xml version="1.0" encoding="UTF-8"?>
<svg version="1.1" xmlns="http://www.w3.org/2000/svg" width="512" height="512">
<path d="M0 0 C1.42026536 -0.00435487 2.84052838 -0.00954058 4.26078796 -0.01548767 C8.09567596 -0.02880712 11.93046497 -0.02946415 15.76537156 -0.02692437 C18.97822943 -0.02584964 22.19106767 -0.03075092 25.40392131 -0.03552979 C32.99065016 -0.04660105 40.57732949 -0.04707613 48.1640625 -0.04101562 C55.96380122 -0.03498027 63.76335934 -0.04728114 71.56306726 -0.06858569 C78.28356213 -0.08626046 85.00399982 -0.09219374 91.72451705 -0.08894795 C95.7277545 -0.08714395 99.73086317 -0.08968206 103.73407936 -0.10366249 C107.50251223 -0.11633199 111.27066584 -0.11421163 115.03909492 -0.1012516 C117.06205107 -0.0977971 119.08501612 -0.10899678 121.10794067 -0.12081909 C138.59609328 -0.02124787 152.70009979 5.28036828 165.14135742 17.5559082 C178.44485813 31.33453393 182.13399486 46.9457956 182.08203125 65.57763672 C182.07885053 67.96733391 182.10246541 70.35581465 182.12768555 72.74536133 C182.12995717 74.27986499 182.13066268 75.81437195 182.12963867 77.34887695 C182.13884842 78.05525803 182.14805817 78.7616391 182.157547 79.48942566 C182.11427064 84.15295172 181.20415233 87.30807045 178.76635742 91.2746582 C174.66606456 95.15914618 171.05678707 97.01536428 165.45385742 97.6496582 C160.86515582 97.18301058 157.52533918 95.94680393 153.76635742 93.2746582 C149.63839475 88.08824356 148.65255724 84.2876827 148.59057617 77.77075195 C148.56672852 76.47202148 148.54288086 75.17329102 148.51831055 73.83520508 C148.48346031 71.78391537 148.45399649 69.7331879 148.44042969 67.68164062 C148.36512413 58.14100567 147.96615056 49.60016909 141.87182617 41.87231445 C141.23889648 41.36571289 140.6059668 40.85911133 139.95385742 40.3371582 C139.32866211 39.81250977 138.7034668 39.28786133 138.05932617 38.74731445 C130.50295019 33.89424163 124.12422774 33.83429643 115.27880859 33.85473633 C113.91470142 33.84738792 112.55060045 33.83879945 111.18650818 33.82907104 C107.49623084 33.80692483 103.80617725 33.80392095 100.11584258 33.80581856 C97.02715095 33.8059386 93.93850613 33.79736042 90.84982759 33.78904104 C83.55756787 33.76983095 76.26542261 33.76691404 68.97314453 33.77368164 C61.46979632 33.7803175 53.96694031 33.75747127 46.46369189 33.72036791 C40.00482053 33.68959703 33.54610687 33.67831894 27.08716375 33.68220472 C23.23700165 33.684265 19.38722253 33.67890597 15.53713036 33.65431213 C11.91301752 33.63192517 8.28970027 33.63402025 4.66558266 33.65423965 C2.71615418 33.65923408 0.76671006 33.63971654 -1.18261719 33.61923218 C-9.70864736 33.70011031 -16.66648538 35.14437381 -23.14233112 41.00077057 C-29.87035301 47.98217478 -30.67666066 56.01537799 -30.62132263 65.26779175 C-30.62670817 66.35379642 -30.63209371 67.43980108 -30.63764244 68.55871499 C-30.65191497 72.18663917 -30.64481979 75.81419813 -30.63769531 79.44213867 C-30.64339924 82.04775282 -30.65036359 84.65336446 -30.65849304 87.25897217 C-30.67565982 93.59529818 -30.67652544 99.93152493 -30.67128014 106.26786815 C-30.66723303 111.42015723 -30.66868841 116.57241705 -30.6740284 121.72470474 C-30.67515103 122.82611715 -30.67515103 122.82611715 -30.67629634 123.94978032 C-30.67782788 125.44163274 -30.67936622 126.93348516 -30.68091131 128.42533757 C-30.69462882 142.40533654 -30.68920407 156.3852795 -30.6777261 170.36527719 C-30.66779581 183.14239147 -30.68073214 195.9193609 -30.70466029 208.69645284 C-30.72906941 221.82977358 -30.73865463 234.9630269 -30.73200756 248.09636986 C-30.72851919 255.46421084 -30.730722 262.83194047 -30.74825859 270.19976425 C-30.76454724 277.1289871 -30.7597707 284.05792924 -30.74095345 290.98714447 C-30.73726781 293.52756574 -30.74037522 296.06800749 -30.75083923 298.60840988 C-30.76405182 302.08177699 -30.75249777 305.55422925 -30.73484802 309.02755737 C-30.74445303 310.02796425 -30.75405804 311.02837112 -30.7639541 312.05909336 C-30.68462192 319.6700383 -29.10915111 326.55945285 -24.37426758 332.67700195 C-23.75036133 333.18360352 -23.12645508 333.69020508 -22.48364258 334.2121582 C-21.87004883 334.73680664 -21.25645508 335.26145508 -20.62426758 335.80200195 C-12.84126867 340.59643102 -5.75097105 340.71099316 3.18383789 340.67871094 C4.52838709 340.68442222 5.87293145 340.6913894 7.21746826 340.69950867 C10.84985212 340.71737328 14.48199351 340.71628425 18.11440802 340.71056628 C21.1559261 340.70746419 24.1973983 340.71357829 27.23890984 340.71960503 C34.41948498 340.73362712 41.5999411 340.73210878 48.78051758 340.72070312 C56.16737877 340.70922846 63.55387661 340.72329168 70.94068992 340.7500996 C77.30191492 340.77231389 83.66302634 340.778881 90.02428734 340.77302319 C93.81512732 340.76966553 97.60573455 340.77198854 101.3965416 340.78927422 C104.96395559 340.8048328 108.5308349 340.80069049 112.09822845 340.78196907 C114.01661532 340.77657382 115.93502671 340.79072993 117.85336304 340.80566406 C126.17258044 340.7353386 133.44372609 339.62030457 140.16870117 334.4152832 C140.67530273 333.79137695 141.1819043 333.1674707 141.70385742 332.5246582 C142.22850586 331.91106445 142.7531543 331.2974707 143.29370117 330.6652832 C148.67337496 321.93223185 148.21057789 313.21248571 148.20214844 303.25610352 C148.22811383 289.04091631 148.22811383 289.04091631 152.76635742 282.2746582 C158.00451593 278.10551164 162.08961164 276.72738396 168.76635742 277.2746582 C174.0387509 279.08458432 177.711565 281.50918202 180.76635742 286.2746582 C181.95309051 289.83485746 181.9473684 293.09478522 181.96948242 296.80200195 C181.9751825 297.5461586 181.98088257 298.29031525 181.98675537 299.05702209 C181.99620258 300.63647037 182.00273825 302.21593833 182.0065918 303.79541016 C182.01619647 306.17232635 182.04717786 308.54833928 182.07885742 310.92504883 C182.20677474 328.94034697 177.87869498 343.73858983 165.07104492 357.0637207 C151.23681938 370.33519808 136.33521097 374.58476671 117.53271484 374.54931641 C116.11244948 374.55367127 114.69218647 374.55885699 113.27192688 374.56480408 C109.43703889 374.57812353 105.60224988 374.57878056 101.76734328 374.57624078 C98.55448542 374.57516604 95.34164717 374.58006733 92.12879354 374.5848462 C84.54206469 374.59591746 76.95538535 374.59639253 69.36865234 374.59033203 C61.56891363 374.58429668 53.7693555 374.59659754 45.96964759 374.6179021 C39.24915272 374.63557687 32.52871502 374.64151015 25.8081978 374.63826436 C21.80496034 374.63646036 17.80185167 374.63899847 13.79863548 374.6529789 C10.03020261 374.6656484 6.26204901 374.66352804 2.49361992 374.65056801 C0.47066377 374.6471135 -1.55230128 374.65831318 -3.57522583 374.6701355 C-20.55130581 374.57347983 -34.6607235 369.46125033 -47.02270508 357.5793457 C-59.3643477 344.71438255 -64.55884935 330.48172161 -64.49433899 312.87101746 C-64.49816454 311.75290108 -64.50199008 310.63478469 -64.50593156 309.482786 C-64.51621506 305.75214746 -64.51227819 302.02166416 -64.50830078 298.29101562 C-64.51264984 295.60968011 -64.51776955 292.92835581 -64.52378845 290.24702454 C-64.53651014 283.72903706 -64.53833228 277.21109083 -64.53598819 270.69309302 C-64.53420189 265.39210917 -64.53596134 260.09113778 -64.54021263 254.79015541 C-64.54080782 254.03439052 -64.54140301 253.27862562 -64.54201623 252.49995876 C-64.54322805 250.96438334 -64.54444218 249.42880792 -64.54565861 247.8932325 C-64.55652458 233.5059136 -64.55437624 219.11861816 -64.54827376 204.73129795 C-64.54310648 191.58703249 -64.55435674 178.44284118 -64.57337198 165.29859038 C-64.59277322 151.78329219 -64.60100231 138.26802904 -64.59724873 124.75271684 C-64.59534002 117.17245786 -64.59779191 109.59226197 -64.61196327 102.01201439 C-64.62390728 95.55815384 -64.62524832 89.1043952 -64.6131731 82.65053316 C-64.60730524 79.36189986 -64.60777003 76.07349007 -64.61817551 72.78486252 C-64.62866972 69.20948757 -64.62052021 65.63460744 -64.60786438 62.05924988 C-64.61892581 60.52170989 -64.61892581 60.52170989 -64.6302107 58.95310849 C-64.50723409 42.35281334 -58.51163654 28.61495001 -46.95239258 16.8996582 C-33.50011541 3.91125266 -18.29488728 -0.03449326 0 0 Z " fill="#112C54" transform="translate(133.233642578125,68.725341796875)"/>
<path d="M0 0 C1.50433594 -0.09087891 1.50433594 -0.09087891 3.0390625 -0.18359375 C10.3047491 1.16915118 15.94482043 7.71003825 21.01879883 12.80664062 C21.62962311 13.41235397 22.24044739 14.01806732 22.86978149 14.64213562 C24.86233149 16.62092541 26.84750852 18.60691214 28.83203125 20.59375 C30.22566833 21.9834947 31.61952682 23.37301741 33.01359558 24.7623291 C35.92254628 27.66384832 38.82763098 30.56917271 41.73022461 33.47705078 C45.44508875 37.19772705 49.17123799 40.90687055 52.90056324 44.61304474 C55.77714204 47.47488176 58.64675357 50.34362629 61.51441002 53.21440125 C62.8855596 54.58503855 64.25906475 55.95332372 65.63498878 57.31916809 C67.55664927 59.22846362 69.46848935 61.14709534 71.37817383 63.06835938 C71.94391617 63.62645798 72.50965851 64.18455658 73.09254456 64.75956726 C77.51439888 69.24076533 80.7893649 73.78282388 80.875 80.3125 C80.92140625 81.48425781 80.92140625 81.48425781 80.96875 82.6796875 C79.44426209 89.76053264 74.02130298 95.23038346 69.01171875 100.1730957 C68.39479156 100.79367355 67.77786438 101.4142514 67.14224243 102.05363464 C65.12295645 104.08095596 63.09311845 106.09731605 61.0625 108.11328125 C59.64621711 109.52904486 58.23045384 110.94532846 56.81518555 112.36210632 C53.8577234 115.31947907 50.89519127 118.27164462 47.92871094 121.2199707 C44.13058554 124.99535833 40.34368842 128.78177495 36.56028748 132.57191181 C33.64215654 135.49338605 30.71905688 138.40984628 27.79434204 141.32472801 C26.39599821 142.71922972 24.99899182 144.11507391 23.60336304 145.51229286 C21.65322238 147.46280506 19.69670079 149.40668193 17.73828125 151.34887695 C17.16566559 151.92397003 16.59304993 152.49906311 16.00308228 153.09158325 C10.97177421 158.05665397 6.70479539 161.19317349 -0.625 161.4375 C-6.87421167 160.41232391 -10.62891763 158.09920433 -14.53125 153.15625 C-17.00247542 149.27289577 -17.28175832 144.90189289 -16.625 140.4375 C-14.25290158 134.25469899 -9.87120475 130.30037147 -5.23828125 125.7578125 C-4.01276802 124.53866653 -4.01276802 124.53866653 -2.76249695 123.29489136 C-0.16114273 120.71027875 2.45046676 118.13631539 5.0625 115.5625 C6.83206774 113.80798483 8.60095596 112.05278402 10.36914062 110.296875 C14.69658451 106.00244053 19.0324873 101.71669347 23.375 97.4375 C21.67483388 97.43530016 21.67483388 97.43530016 19.94032097 97.43305588 C-7.62605776 97.39647726 -35.19231484 97.33704915 -62.75859261 97.25359726 C-76.08940043 97.21377085 -89.42011772 97.18139666 -102.75097656 97.16650391 C-114.36878095 97.15350608 -125.98645497 97.12658916 -137.60418594 97.08288693 C-143.75693607 97.0602302 -149.90952515 97.04459185 -156.06232071 97.04561615 C-161.85224172 97.04636026 -167.64180613 97.02850928 -173.4316349 96.99633217 C-175.55767377 96.98780605 -177.6837525 96.98610154 -179.8098011 96.99169731 C-182.7114388 96.99831777 -185.61193546 96.98046304 -188.51345825 96.95648193 C-189.35588078 96.96424235 -190.1983033 96.97200277 -191.06625378 96.97999835 C-196.38915387 96.9020549 -199.38652307 95.93966772 -203.625 92.4375 C-207.70642118 87.9148441 -208.94864536 84.64603647 -208.8359375 78.4921875 C-208.34644252 73.72414383 -206.09319043 70.64637323 -202.5625 67.625 C-197.92210865 64.16938942 -194.62327735 64.28572786 -188.99447632 64.27928162 C-188.0903024 64.27434364 -187.18612848 64.26940566 -186.25455534 64.26431805 C-183.20665211 64.24888663 -180.15877002 64.2405672 -177.11083984 64.23217773 C-174.93323071 64.22260364 -172.75562346 64.21259385 -170.57801819 64.20217896 C-164.65065167 64.17507301 -158.72327715 64.15409431 -152.7958827 64.13417697 C-146.60720315 64.11235243 -140.41854845 64.0849465 -134.22988892 64.05812073 C-123.17105683 64.01098994 -112.11221369 63.96811308 -101.05335601 63.92746563 C-87.03919248 63.87589285 -73.02505593 63.81860421 -59.01091838 63.76041877 C-31.54896882 63.64652531 -4.08699538 63.53970236 23.375 63.4375 C22.90337433 62.97253616 22.43174866 62.50757233 21.9458313 62.02851868 C17.03798777 57.18705326 12.14074243 52.33505387 7.24951172 47.47680664 C5.42278284 45.66516263 3.59337026 43.85622051 1.76123047 42.05004883 C-0.87202054 39.45319234 -3.49546257 36.84676736 -6.1171875 34.23828125 C-6.93806854 33.43288406 -7.75894958 32.62748688 -8.60470581 31.79768372 C-9.36534332 31.0372728 -10.12598083 30.27686188 -10.90966797 29.4934082 C-11.58029266 28.82944534 -12.25091736 28.16548248 -12.94186401 27.48139954 C-16.24226418 23.47359124 -17.03619582 19.58859869 -16.87109375 14.421875 C-16.28464703 9.69306651 -14.0808079 6.63577693 -10.5625 3.625 C-6.70835905 0.75489503 -4.7597478 0.19882491 0 0 Z " fill="#539BFF" transform="translate(362.625,175.5625)"/>
</svg>
