<?xml version="1.0" encoding="UTF-8"?>
<svg version="1.1" xmlns="http://www.w3.org/2000/svg" width="512" height="512">
<path d="M0 0 C20.88389989 17.91374524 35.67057465 41.92357854 39.1875 69.5625 C39.47792976 74.31621282 39.5217983 79.05081677 39.5 83.8125 C39.49436035 85.09793701 39.4887207 86.38337402 39.48291016 87.70776367 C39.10786552 116.99280844 26.5998212 142.84035316 5.85180664 163.31567383 C-12.31386695 180.56745971 -35.25129922 189.21243965 -59.8125 191.5625 C-59.76784464 195.91909253 -59.69750437 200.27434975 -59.60498047 204.63012695 C-59.57703497 206.10690215 -59.55569128 207.58381957 -59.54150391 209.06079102 C-59.49377446 223.88208787 -59.49377446 223.88208787 -52.91699219 236.7590332 C-44.271105 245.16703329 -34.42823287 245.0258168 -23.0703125 244.99609375 C-21.53628307 245.00066322 -20.00225568 245.00597105 -18.4682312 245.01197815 C-15.2624273 245.02088059 -12.05687289 245.01851972 -8.85107422 245.00854492 C-4.76702827 244.99706832 -0.6838487 245.01726052 3.40008354 245.04646206 C6.56594201 245.06491594 9.73159645 245.06451331 12.89749527 245.05882454 C14.4020115 245.05867239 15.90654252 245.0646274 17.41100693 245.07711601 C27.01912362 245.14564111 35.67123732 244.75127182 43.58984375 238.73828125 C49.07316592 232.08295129 50.95127355 226.39704711 51.79248047 217.83203125 C52.97413165 205.97659444 57.02646008 195.63939318 66.1875 187.5625 C79.4727603 178.01711658 93.84013116 176.03845238 109.921875 178.0234375 C121.48018991 180.16853961 130.88625097 185.193086 138.1875 194.5625 C145.25808488 206.22110885 146.48498297 216.17128893 146.3828125 229.5625 C146.3790762 231.00838016 146.37623214 232.45426287 146.37423706 233.90014648 C146.36664914 237.68128615 146.34704307 241.46226892 146.3248291 245.24334717 C146.30426557 249.11142862 146.29521301 252.97953574 146.28515625 256.84765625 C146.26379193 264.41934188 146.22971549 271.99089885 146.1875 279.5625 C147.2717627 279.69970459 148.35602539 279.83690918 149.47314453 279.97827148 C160.74240775 281.75080645 171.26931679 289.21392884 178.1484375 298.09375 C185.87017282 309.43199426 187.808708 320.43337215 187.71875 333.96875 C187.72145407 335.42501076 187.72534403 336.88126974 187.73034668 338.33752441 C187.73619893 341.36988745 187.72781908 344.4017749 187.70898438 347.43408203 C187.68619659 351.2869479 187.69934301 355.1386986 187.72327423 358.99152374 C187.73784941 361.9927789 187.73307326 364.99377725 187.72276306 367.99504089 C187.72012796 369.41416054 187.7232498 370.83330487 187.73268127 372.25239563 C187.81158057 387.45316752 184.00694169 400.56115885 173.4375 411.8125 C161.36624501 423.23749277 148.26860024 426.08152386 132.22265625 425.8359375 C120.18511757 425.38422232 111.19142222 420.02061111 102.4375 412.0625 C101.695 411.2375 100.9525 410.4125 100.1875 409.5625 C99.70796875 409.07523437 99.2284375 408.58796875 98.734375 408.0859375 C88.29013133 396.95596066 86.87541244 382.94767179 86.88671875 368.35546875 C86.88243362 367.11307938 86.8781485 365.87069 86.87373352 364.59065247 C86.86801663 361.97442227 86.86747035 359.35817618 86.87182617 356.74194336 C86.87498224 352.77234334 86.8515055 348.80349232 86.82617188 344.83398438 C86.82389801 342.27864676 86.82319579 339.72330717 86.82421875 337.16796875 C86.815009 335.99775681 86.80579926 334.82754486 86.79631042 333.62187195 C86.88974299 316.70257076 91.41593704 303.3724121 103.28515625 291.26953125 C110.35564075 284.67485325 119.33429432 279.5625 129.1875 279.5625 C129.12604546 271.50351511 129.04876694 263.44489765 128.95178509 255.38626957 C128.90722942 251.64352166 128.86794175 247.9008789 128.84106445 244.15795898 C128.81488233 240.53970575 128.77437756 236.9218604 128.72431374 233.30386162 C128.70774499 231.92976427 128.69616892 230.55559653 128.68988609 229.18141365 C128.64332883 219.92682266 128.20811691 212.18226704 123.0625 204.3125 C114.89906148 196.50399359 106.73823897 195.22930185 95.76171875 195.35546875 C87.73478005 195.82041711 81.69413669 197.90759976 75.875 203.57421875 C71.04213604 209.26849596 69.99872097 215.08459699 69.25 222.375 C67.97955868 234.72547372 63.36712739 245.18060899 53.97265625 253.53125 C42.60929207 262.22413151 29.95472534 263.17647876 16.1875 263.09375 C14.57812263 263.09645382 12.96874687 263.10034357 11.359375 263.10534668 C8.00765226 263.11120005 4.65635969 263.10281501 1.3046875 263.08398438 C-2.95493836 263.06119692 -7.21355552 263.07434266 -11.47314453 263.09827423 C-14.790114 263.11284606 -18.106851 263.10807467 -21.42382812 263.09776306 C-22.99283981 263.09512706 -24.5618738 263.09825307 -26.13085938 263.10768127 C-40.98420137 263.17738655 -53.46613861 260.78915467 -64.8125 250.5625 C-76.35933587 238.14965144 -77.11463094 224.13395519 -76.9375 208 C-76.92745088 206.4030004 -76.91832844 204.80599468 -76.91015625 203.20898438 C-76.88829391 199.32666994 -76.8538706 195.44465356 -76.8125 191.5625 C-77.86381104 191.447854 -78.91512207 191.33320801 -79.99829102 191.21508789 C-87.44446163 190.36840675 -94.65525057 189.5324748 -101.75 187 C-102.85939941 186.6136438 -102.85939941 186.6136438 -103.99121094 186.21948242 C-118.22490867 181.04565105 -130.40236924 173.44634054 -141.8125 163.5625 C-142.55757812 162.91925781 -143.30265625 162.27601563 -144.0703125 161.61328125 C-163.21126287 143.75097737 -175.07046088 116.60412307 -176.05078125 90.55078125 C-176.60349403 62.34749126 -169.43057309 36.30999389 -150.8125 14.5625 C-150.12414062 13.74136719 -149.43578125 12.92023438 -148.7265625 12.07421875 C-111.33754949 -31.15272787 -43.98944799 -34.96913983 0 0 Z " fill="#116FFF" transform="translate(281.8125,86.4375)"/>
<path d="M0 0 C1.24523437 -0.00322266 2.49046875 -0.00644531 3.7734375 -0.00976562 C13.9110898 0.04904987 22.86675371 1.40596633 32.3125 5.0625 C33.33935913 5.45610718 33.33935913 5.45610718 34.38696289 5.85766602 C44.09581933 9.67312021 52.3535643 14.65870372 60.375 21.3125 C60.94476563 21.73660156 61.51453125 22.16070312 62.1015625 22.59765625 C78.37836553 35.21025007 88.37694997 56.83277276 91.98828125 76.68359375 C94.73281698 102.43787344 88.87312637 127.81142477 72.57177734 148.26416016 C57.34937052 166.66528473 35.87654648 179.47426487 11.9375 182.05859375 C10.761875 182.14238281 9.58625 182.22617187 8.375 182.3125 C7.09625 182.40660156 5.8175 182.50070312 4.5 182.59765625 C-20.67213251 183.81142586 -43.22824784 174.20028976 -61.71484375 157.56640625 C-72.10693166 147.87571495 -79.31419761 136.49504507 -84.625 123.3125 C-85.06779297 122.25289062 -85.06779297 122.25289062 -85.51953125 121.171875 C-89.47378851 111.27649229 -90.03389946 101.7517329 -90 91.1875 C-89.9987915 90.49486053 -89.99758301 89.80222107 -89.99633789 89.08859253 C-89.87097496 62.68326164 -78.97971668 41.72745505 -60.50390625 23.18359375 C-43.77232122 7.49581403 -22.66105445 -0.29506581 0 0 Z " fill="#D5E8FF" transform="translate(212.625,79.6875)"/>
<path d="M0 0 C6.75240199 5.46804681 11.39564118 12.15284051 13.82421875 20.4921875 C14.09837341 23.44876099 14.09837341 23.44876099 14.13061523 26.58251953 C14.14660263 27.76459991 14.16259003 28.9466803 14.17906189 30.1645813 C14.18442459 31.43026947 14.18978729 32.69595764 14.1953125 34 C14.20434097 35.31700897 14.21336945 36.63401794 14.22267151 37.99093628 C14.23911936 40.77653442 14.24685312 43.56201306 14.24975586 46.34765625 C14.25511667 49.88467937 14.2927165 53.42054791 14.33850002 56.95724678 C14.36853164 59.70626721 14.37548508 62.45501925 14.37648201 65.2041893 C14.38263411 67.13161162 14.41197233 69.0589163 14.44200134 70.9861145 C14.38958882 81.34312356 11.94333821 91.24629225 4.62109375 98.96484375 C-3.98864524 106.28312189 -12.76204682 109.00993636 -23.9609375 108.8046875 C-32.53939206 107.97081585 -40.15505604 102.87677924 -45.90234375 96.609375 C-52.97318309 87.72728618 -53.65942271 79.48668922 -53.71484375 68.421875 C-53.72705676 67.05436973 -53.7395437 65.68686687 -53.75228882 64.31936646 C-53.77467212 61.45992062 -53.78430841 58.60073937 -53.78662109 55.74121094 C-53.79188201 52.11653855 -53.8431081 48.49413441 -53.90613747 44.8700695 C-53.9474658 42.04543872 -53.95626671 39.22133278 -53.95673752 36.39642715 C-53.96458828 34.42357201 -54.0046578 32.45092669 -54.04580688 30.47848511 C-53.96738572 19.90370532 -51.11964075 10.66872892 -43.66641235 2.86471558 C-31.4596228 -7.76514517 -13.50545818 -9.35925827 0 0 Z " fill="#93C0FF" transform="translate(439.17578125,387.5078125)"/>
<path d="M0 0 C3.80915027 1.17737372 5.32439462 1.6815314 7.4375 5.0625 C7.75624291 8.09317032 7.67092683 11.02795118 7.4375 14.0625 C8.53449219 14.01609375 9.63148438 13.9696875 10.76171875 13.921875 C12.2161185 13.8843421 13.67054783 13.84794357 15.125 13.8125 C15.84623047 13.77898437 16.56746094 13.74546875 17.31054688 13.7109375 C21.16267254 13.64057904 23.03739498 13.82191397 26.42578125 15.859375 C28.4375 18.0625 28.4375 18.0625 28.9375 21.5625 C28.42768374 25.13121381 28.00083571 26.59410265 25.4375 29.0625 C22.08989606 30.17836798 19.53789621 30.18844381 16.01171875 30.203125 C14.74005859 30.22246094 13.46839844 30.24179688 12.15820312 30.26171875 C9.48028433 30.30014687 6.80552787 30.31378918 4.12695312 30.31640625 C-3.65544096 30.20529761 -3.65544096 30.20529761 -10.41796875 33.484375 C-13.76418929 37.50715379 -13.99959216 39.81739413 -13.5625 45.0625 C-11.44886077 49.06331712 -9.80550529 51.47137302 -5.5625 53.0625 C-3.31735754 53.25604676 -1.06506232 53.37356264 1.1875 53.4375 C7.21813048 53.80033876 11.46868205 54.62971008 16.4375 58.0625 C17.489375 58.784375 18.54125 59.50625 19.625 60.25 C23.16673521 63.79173521 25.23766562 67.60148128 27.4375 72.0625 C27.7675 72.7225 28.0975 73.3825 28.4375 74.0625 C29.45482551 84.87521689 28.04420529 92.45975032 21.125 100.875 C12.29464286 108.0625 12.29464286 108.0625 7.4375 108.0625 C7.47230469 108.65417969 7.50710937 109.24585938 7.54296875 109.85546875 C7.71173044 114.78170277 7.68441546 118.06629636 4.4375 122.0625 C1.30889505 123.62680248 -1.11852925 123.41877284 -4.5625 123.0625 C-7 121.125 -7 121.125 -8.5625 118.0625 C-8.87186646 115.02969442 -8.80060226 112.09830379 -8.5625 109.0625 C-9.73167969 109.12050781 -10.90085938 109.17851562 -12.10546875 109.23828125 C-13.6536058 109.28519449 -15.20178617 109.33069298 -16.75 109.375 C-17.51892578 109.41689453 -18.28785156 109.45878906 -19.08007812 109.50195312 C-23.37642825 109.59414948 -25.05743273 109.44373177 -28.60546875 106.765625 C-30.5625 104.0625 -30.5625 104.0625 -30.6875 100.5 C-29.33888299 96.37922581 -28.17716223 95.37004132 -24.5625 93.0625 C-21.41210938 92.56420898 -21.41210938 92.56420898 -17.90625 92.55859375 C-16.63652344 92.53990234 -15.36679688 92.52121094 -14.05859375 92.50195312 C-12.73988281 92.50130859 -11.42117187 92.50066406 -10.0625 92.5 C-7.44783827 92.49105443 -4.83318149 92.46942606 -2.21875 92.43359375 C-1.06181641 92.43286865 0.09511719 92.43214355 1.28710938 92.43139648 C4.76617741 92.02401336 6.62996357 91.11340663 9.4375 89.0625 C11.77863009 86.05247559 11.84966607 82.78508458 11.765625 79.03125 C11.24697233 75.91933396 9.65195226 74.21182131 7.4375 72.0625 C4.72598292 70.70674146 2.40255662 70.87393507 -0.625 70.75 C-6.72911668 70.31254952 -11.28625721 69.12478993 -16.5625 66.0625 C-17.19929687 65.7015625 -17.83609375 65.340625 -18.4921875 64.96875 C-24.2415312 61.31680637 -27.04895201 56.30581713 -29.875 50.25 C-31.80281262 41.31195969 -30.76610296 34.77454467 -26.33984375 26.734375 C-22.58919561 21.09603801 -17.82836396 17.62580798 -11.5625 15.0625 C-10.5725 15.0625 -9.5825 15.0625 -8.5625 15.0625 C-8.62050781 14.39863281 -8.67851562 13.73476562 -8.73828125 13.05078125 C-8.97462219 8.42525147 -9.07284347 5.85121264 -6.5 1.875 C-3.5625 0.0625 -3.5625 0.0625 0 0 Z " fill="#1471FF" transform="translate(214.5625,108.9375)"/>
<path d="M0 0 C2.9375 2.125 2.9375 2.125 5 5 C5.57499983 9.02499881 5.08570892 11.55917913 3 15 C0.61611449 16.90681751 -2.07871601 18.28031508 -4.75 19.75 C-5.45382812 20.16121094 -6.15765625 20.57242188 -6.8828125 20.99609375 C-11.03414169 23.31867755 -14.11760878 24.72305207 -19 24 C-22.63525215 21.39210172 -23.83397068 19.9297642 -24.625 15.5 C-23.84799064 11.14874756 -22.4780835 9.46063584 -19 7 C-6.34099545 -1.55289684 -6.34099545 -1.55289684 0 0 Z " fill="#106EFF" transform="translate(358,81)"/>
<path d="M0 0 C2.60884051 1.17845692 4.84298861 2.32505032 7.25 3.8125 C7.86101562 4.16892578 8.47203125 4.52535156 9.1015625 4.89257812 C16.47671419 9.28063235 16.47671419 9.28063235 17.875 13.875 C18.02524355 17.63108863 17.28344384 19.06414363 15 22 C11.42626604 24.38248931 10.2184822 24.49540894 6 24 C3.27153273 22.8575312 0.8181753 21.37637845 -1.6875 19.8125 C-2.35072266 19.42513672 -3.01394531 19.03777344 -3.69726562 18.63867188 C-7.56998661 16.27915909 -10.134017 14.2931639 -12 10 C-11.92733979 6.4396496 -11.38506043 4.56278062 -9.375 1.625 C-6.04267038 -0.655015 -3.9973735 -0.35705492 0 0 Z " fill="#106EFF" transform="translate(76,81)"/>
<path d="M0 0 C2.49074647 2.36440426 4.21236619 5.08281736 6 8 C6.48984375 8.76570313 6.9796875 9.53140625 7.484375 10.3203125 C10.04035149 14.55634095 12.03724637 17.92901775 11 23 C9.0260809 26.41639845 7.81461541 27.72268412 4.0625 29 C0.28091854 29 -0.97502097 28.24463543 -4 26 C-5.56776417 23.81791688 -6.92555668 21.75272881 -8.25 19.4375 C-8.600625 18.84775391 -8.95125 18.25800781 -9.3125 17.65039062 C-12.25866686 12.6702355 -13.50913155 9.90592596 -13 4 C-9.07084371 -0.97693131 -6.11616944 -1.73291468 0 0 Z " fill="#106EFF" transform="translate(137,22)"/>
<path d="M0 0 C1.9375 1.5625 1.9375 1.5625 3 4 C3.4874378 10.23129943 2.61323033 13.98452517 -0.5625 19.3125 C-0.88541016 19.91900391 -1.20832031 20.52550781 -1.54101562 21.15039062 C-4.32583386 25.97210447 -6.84414365 27.469537 -12 29 C-15.8125 28.125 -15.8125 28.125 -19 26 C-20.8300962 21.81692298 -21.26902556 19.80356001 -19.8046875 15.4296875 C-19.18392092 14.23287058 -18.54001909 13.04780498 -17.875 11.875 C-17.4109375 10.98361328 -17.4109375 10.98361328 -16.9375 10.07421875 C-12.58468872 1.92618771 -9.64134856 -2.2381702 0 0 Z " fill="#106EFF" transform="translate(300,22)"/>
<path d="M0 0 C1.33417969 -0.01643555 1.33417969 -0.01643555 2.6953125 -0.03320312 C6.9011011 0.0138766 9.39098538 0.20050917 13.0625 2.3828125 C15.76099598 5.41862048 16 7.54068238 16 11.5625 C14.65437601 14.51005732 13.91445456 16.10527272 11 17.5625 C7.5691548 17.85509649 4.12937345 17.84041989 0.6875 17.875 C-0.26318359 17.90400391 -1.21386719 17.93300781 -2.19335938 17.96289062 C-6.56575007 18.00261185 -9.26704653 17.9779318 -13.12890625 15.7890625 C-15.36004018 13.1340597 -15.59578753 11.09438715 -15.6640625 7.66015625 C-13.17522121 -0.20165419 -6.98784432 -0.18735525 0 0 Z " fill="#106EFF" transform="translate(369,161.4375)"/>
<path d="M0 0 C1.33417969 -0.01643555 1.33417969 -0.01643555 2.6953125 -0.03320312 C6.89969986 0.01386091 9.39314961 0.20302811 13.06640625 2.37890625 C15.72869319 5.38540806 15.9291761 7.59636166 16 11.5625 C14.89791992 14.96058026 14.07902124 15.50981917 11 17.5625 C7.55714288 18.01944847 4.09498977 17.93281082 0.625 17.9375 C-0.32117187 17.96199219 -1.26734375 17.98648438 -2.2421875 18.01171875 C-6.5950868 18.03005962 -9.28507488 17.96911366 -13.125 15.78515625 C-15.36254573 13.13273225 -15.59575383 11.09608215 -15.6640625 7.66015625 C-13.17522121 -0.20165419 -6.98784432 -0.18735525 0 0 Z " fill="#106FFF" transform="translate(58,161.4375)"/>
<path d="M0 0 C0.77988281 -0.03738281 1.55976563 -0.07476563 2.36328125 -0.11328125 C4.6875 0.3125 4.6875 0.3125 6.94921875 1.64453125 C9.74778101 5.93985265 9.26517214 10.302647 9.1875 15.3125 C9.20296875 16.31023438 9.2184375 17.30796875 9.234375 18.3359375 C9.19548068 25.58972834 9.19548068 25.58972834 6.83984375 28.94140625 C4.00989537 30.74415014 2.04640017 31.24395102 -1.3125 31.3125 C-4.84156067 29.70838152 -6.14022908 28.57090638 -8.3125 25.3125 C-8.73852352 22.20196025 -8.63677417 19.07413789 -8.625 15.9375 C-8.64111328 15.08671875 -8.65722656 14.2359375 -8.67382812 13.359375 C-8.67761115 8.50196583 -8.43281338 5.27806283 -5.3125 1.3125 C-3.74308802 -0.25691198 -2.17115006 0.0675153 0 0 Z " fill="#106EFF" transform="translate(213.3125,-0.3125)"/>
<path d="M0 0 C2.58970499 2.02865543 3.8360968 3.23614356 4.53344727 6.48608398 C4.56909761 9.47147014 4.59392702 12.45193272 4.5625 15.4375 C4.58634766 16.47455078 4.61019531 17.51160156 4.63476562 18.58007812 C4.62531097 23.48704399 4.61020427 26.15169237 1.6875 30.21484375 C-1 32 -1 32 -4.5625 32.125 C-8.79136095 30.74100914 -9.74673388 29.81991467 -12 26 C-12.60731625 22.48898793 -12.60407405 19.05580414 -12.5625 15.5 C-12.59827148 14.09427734 -12.59827148 14.09427734 -12.63476562 12.66015625 C-12.62485137 8.00045768 -12.52535202 5.70904775 -9.6875 1.87890625 C-6.16469403 -0.58398571 -4.21260378 -0.68933516 0 0 Z " fill="#1471FF" transform="translate(423,396)"/>
</svg>
